<?xml version="1.0" encoding="UTF-8" standalone="no"?>
<!DOCTYPE svg PUBLIC "-//W3C//DTD SVG 1.1//EN" "http://www.w3.org/Graphics/SVG/1.1/DTD/svg11.dtd">
<svg width="100%" height="100%" viewBox="0 0 30 30" version="1.1" xmlns="http://www.w3.org/2000/svg" xmlns:xlink="http://www.w3.org/1999/xlink" xml:space="preserve" xmlns:serif="http://www.serif.com/" style="fill-rule:evenodd;clip-rule:evenodd;stroke-linejoin:round;stroke-miterlimit:2;">
    <g transform="matrix(0.390625,0,0,0.390625,5.97857,5.97857)">
        <rect x="0" y="0" width="48" height="48" style="fill:none;"/>
        <g transform="matrix(1.67823,0,0,1.72411,-17.1828,-18.2839)">
            <path d="M24,9C14,9 5.46,15.22 2,24C5.46,32.78 14,39 24,39C34.01,39 42.54,32.78 46,24C42.54,15.22 34.01,9 24,9ZM24,34C18.48,34 14,29.52 14,24C14,18.48 18.48,14 24,14C29.52,14 34,18.48 34,24C34,29.52 29.52,34 24,34ZM24,18C20.69,18 18,20.69 18,24C18,27.31 20.69,30 24,30C27.31,30 30,27.31 30,24C30,20.69 27.31,18 24,18Z" style="fill:white;fill-rule:nonzero;"/>
        </g>
    </g>
</svg>
